<svg xmlns="http://www.w3.org/2000/svg" width="37" height="37" viewBox="0 0 37 37"><g transform="translate(-717 -2235)"><rect width="36.999" height="37" transform="translate(717 2235)" fill="#fff" opacity="0"/><g transform="translate(717.001 2235)"><path d="M34.492,17.615a5.089,5.089,0,0,0-2.482-.666l-.961-4.228a5.128,5.128,0,1,0-7.286-6.9l-3.571-1.1A5.13,5.13,0,1,0,10.387,7.2l-3.231,3a5.125,5.125,0,1,0-2.451,9.84l1.029,4.538a5.128,5.128,0,1,0,7.664,6.61l3.579,1.1A5.13,5.13,0,1,0,26.585,29.4L29.6,26.608a5.12,5.12,0,0,0,4.9-8.993ZM27.077,6.769a2.028,2.028,0,1,1-.658,2.791A2.034,2.034,0,0,1,27.077,6.769Zm1,6.852.961,4.235A5.1,5.1,0,0,0,27.4,24.422l-3.072,2.851a5.049,5.049,0,0,0-2.239-.514A5.139,5.139,0,0,0,17.68,29.27l-3.533-1.1a5.09,5.09,0,0,0-.749-2.352A5.149,5.149,0,0,0,8.654,23.4l-.908-4.009A5.118,5.118,0,0,0,9.555,12.2l2.9-2.685a5.128,5.128,0,0,0,7.036-1.777l3.541,1.1a5.119,5.119,0,0,0,5.046,4.788ZM15.085,3.093A2.027,2.027,0,1,1,13.058,5.12,2.027,2.027,0,0,1,15.085,3.093ZM3.457,13.939A2.026,2.026,0,1,1,4.221,16.7,2.032,2.032,0,0,1,3.457,13.939Zm6.643,16.3a2.028,2.028,0,1,1,.658-2.791A2.034,2.034,0,0,1,10.1,30.238Zm11.992,3.676a2.027,2.027,0,1,1,2.028-2.027A2.027,2.027,0,0,1,22.091,33.914ZM33.72,23.068a2.026,2.026,0,1,1-.764-2.761A2.032,2.032,0,0,1,33.72,23.068Z" transform="translate(-0.085 0)" fill="#5c6ac4"/></g></g></svg>