<svg xmlns="http://www.w3.org/2000/svg" width="21.751" height="37" viewBox="0 0 21.751 37"><g transform="translate(0)"><path d="M99.242,28.981V8.105C99.242,3.6,96.082,0,92.135,0H84.6c-3.947,0-7.108,3.6-7.108,8.105v20.79c0,4.5,3.16,8.105,7.108,8.105h7.611C96.082,37,99.311,33.4,99.242,28.981ZM84.6,3.195h7.535a4.6,4.6,0,0,1,4.292,4.5H80.307A4.591,4.591,0,0,1,84.6,3.195ZM96.441,28.981c0,2.7-1.939,4.91-4.306,4.91H84.6c-2.367,0-4.306-2.211-4.306-4.91V28H96.448v.984Zm0-4.257H80.287V10.969H96.441Z" transform="translate(-77.492)" fill="#f5cc2f"/><ellipse cx="1.308" cy="1.308" rx="1.308" ry="1.308" transform="translate(9.602 30.747)" fill="#f5cc2f"/></g></svg>