<svg xmlns="http://www.w3.org/2000/svg" width="30.072" height="30.001" viewBox="0 0 30.072 30.001"><g transform="translate(-451.999 -2344.999)"><rect width="30" height="30" transform="translate(452 2345)" fill="#f5cc2f" opacity="0"/><g transform="translate(451.999 2344.417)"><g transform="translate(0 0.583)"><path d="M28.8.583H23.631a1.305,1.305,0,0,0-1.212.894L17.245,18.2H5.753L3.01,10.03H14.116a1.28,1.28,0,0,0,0-2.559H1.283A1.266,1.266,0,0,0,.071,9.13L3.647,19.851a1.316,1.316,0,0,0,1.212.833H18.2a1.306,1.306,0,0,0,1.212-.833L24.58,3.13h4.212A1.274,1.274,0,1,0,28.8.583Z" transform="translate(0 -0.583)" fill="#f5cc2f"/><path d="M62.331,367.583a3.732,3.732,0,0,0-3.765,3.765,3.765,3.765,0,1,0,3.765-3.765Zm0,5.039a1.28,1.28,0,1,1,1.28-1.28A1.283,1.283,0,0,1,62.331,372.622Z" transform="translate(-54.98 -345.113)" fill="#f5cc2f"/><path d="M212.431,367.583a3.732,3.732,0,0,0-3.765,3.765,3.77,3.77,0,0,0,3.765,3.765,3.732,3.732,0,0,0,3.765-3.765A3.77,3.77,0,0,0,212.431,367.583Zm0,5.039a1.28,1.28,0,1,1,1.28-1.28A1.283,1.283,0,0,1,212.431,372.622Z" transform="translate(-195.89 -345.113)" fill="#f5cc2f"/></g></g></g></svg>