<svg xmlns="http://www.w3.org/2000/svg" width="37" height="37" viewBox="0 0 37 37"><g transform="translate(-453 -2267)"><rect width="37" height="37" transform="translate(453 2267)" fill="#5c6ac4" opacity="0"/><g transform="translate(453 2267)"><path d="M18.5,0A18.5,18.5,0,1,0,37,18.5,18.484,18.484,0,0,0,18.5,0ZM33.852,16.926H28.7A25.986,25.986,0,0,0,25.393,4.7,15.478,15.478,0,0,1,33.852,16.926ZM16.926,3.511V16.926H11.38C11.72,10.063,14.248,4.986,16.926,3.511Zm0,16.563V33.5c-2.686-1.46-5.213-6.5-5.554-13.423Zm3.148,13.415V20.074H25.62C25.287,26.944,22.76,32.014,20.074,33.489Zm0-16.563V3.511c2.686,1.46,5.213,6.5,5.554,13.423H20.074ZM11.615,4.7A25.873,25.873,0,0,0,8.308,16.926H3.155A15.462,15.462,0,0,1,11.615,4.7ZM3.155,20.074H8.308A25.986,25.986,0,0,0,11.615,32.3,15.462,15.462,0,0,1,3.155,20.074ZM25.393,32.3A25.873,25.873,0,0,0,28.7,20.074h5.153A15.478,15.478,0,0,1,25.393,32.3Z" fill="#5c6ac4"/></g></g></svg>