<svg xmlns="http://www.w3.org/2000/svg" width="123.149" height="30.496" viewBox="0 0 123.149 30.496">
  <g id="esprit_Konvertiert_" data-name="esprit [Konvertiert]" transform="translate(0 -0.001)">
    <path id="Pfad_40740" data-name="Pfad 40740" d="M281.688,324.249a11.6,11.6,0,0,1,.821,3.574H279.02a5.85,5.85,0,0,0-3.289-5.068c-2.85-1.14-6.841-1-9.3.844a4.68,4.68,0,0,0-1.773,4.486,3.591,3.591,0,0,0,1.881,2.645,9.891,9.891,0,0,0,3.717.952v3.551c-3.141-.473-6.749-.844-8.289-4.156a8.522,8.522,0,0,1,1.214-8.95c2.6-2.816,6.3-3.187,10.1-3.055C276.705,319.29,280.28,320.852,281.688,324.249Z" transform="translate(-238.334 -319.05)" fill="#1e232f"/>
    <rect id="Rechteck_28704" data-name="Rechteck 28704" width="21.337" height="3.42" transform="translate(0 0.502)" fill="#1e232f"/>
    <rect id="Rechteck_28705" data-name="Rechteck 28705" width="3.551" height="29.158" transform="translate(46.132 0.502)" fill="#1e232f"/>
    <path id="Pfad_40741" data-name="Pfad 40741" d="M320.961,319.978c2.89,0,6.043,1.494,7.063,4.441,1.14,2.947.8,6.841-1.454,9.161-2.166,2.235-5.262,2.212-8.357,2.212h-3.922v-3.42h6.584a3.982,3.982,0,0,0,3.728-2,6.674,6.674,0,0,0-.2-5.353c-.992-1.408-2.554-1.647-4.2-1.647H314.28v-3.42Z" transform="translate(-261.53 -319.437)" fill="#1e232f"/>
    <rect id="Rechteck_28706" data-name="Rechteck 28706" width="3.511" height="29.158" transform="translate(68.285 0.502)" fill="#1e232f"/>
    <path id="Pfad_40742" data-name="Pfad 40742" d="M363.785,319.978a7.2,7.2,0,0,1,6.8,3.854c1.277,2.713,1.169,6.761-.7,9.183-1.665,2.149-4.139,2.776-6.692,2.776H354.22v-3.42h9.469a4.1,4.1,0,0,0,3.722-1.978c.718-1.864.8-4.64-.844-6.088-1.431-1.066-3.238-.935-5.222-.935H354.22v-3.42Z" transform="translate(-279.026 -319.437)" fill="#1e232f"/>
    <rect id="Rechteck_28707" data-name="Rechteck 28707" width="3.529" height="29.158" transform="translate(94.466 0.502)" fill="#1e232f"/>
    <rect id="Rechteck_28708" data-name="Rechteck 28708" width="23.634" height="3.42" transform="translate(99.516 0.502)" fill="#1e232f"/>
    <rect id="Rechteck_28709" data-name="Rechteck 28709" width="3.534" height="22.836" transform="translate(109.178 6.824)" fill="#1e232f"/>
    <rect id="Rechteck_28710" data-name="Rechteck 28710" width="21.337" height="3.42" transform="translate(0 12.912)" fill="#1e232f"/>
    <path id="Pfad_40743" data-name="Pfad 40743" d="M281.605,346.354a8.921,8.921,0,0,1-.889,9.121c-3.529,4.184-9.793,4.657-14.707,3.01a9.261,9.261,0,0,1-6.3-7.69c-.068-.57-.131-1.191-.154-1.773h3.677c0,2.28.542,4.481,2.6,5.763,3.055,1.95,8.061,2.183,11.048-.091a5.621,5.621,0,0,0,2.058-5.5,4.076,4.076,0,0,0-2.793-3.141,14.037,14.037,0,0,0-3.358-.6V341.89C276.144,342.369,279.958,342.825,281.605,346.354Z" transform="translate(-237.616 -328.87)" fill="#1e232f"/>
    <path id="Pfad_40744" data-name="Pfad 40744" d="M158.376,44.218h-3.985L147.87,33.86h4.076Z" transform="translate(-64.641 -14.558)" fill="#1e232f"/>
    <rect id="Rechteck_28711" data-name="Rechteck 28711" width="21.337" height="3.42" transform="translate(0 26.234)" fill="#1e232f"/>
  </g>
</svg>
