<svg xmlns="http://www.w3.org/2000/svg" width="84" height="30" viewBox="0 0 84 30"><g><g><g><path fill="#1f2430" d="M71.456 10.893c1.178 1.08 1.767 2.454 1.833 4.188v3.795c0 1.702-.557 3.141-1.67 4.254-1.079 1.145-2.551 1.701-4.35 1.701-1.473 0-2.814-.589-3.96-1.701-1.145-1.08-1.799-2.421-1.963-3.927h-.032v-3.598h3.926v3.598c.262 1.047.949 1.571 1.996 1.571.752 0 1.308-.196 1.636-.654.327-.458.49-.982.49-1.57V15.08c0-.654-.196-1.145-.556-1.472-.36-.295-.916-.458-1.603-.458-1.669-.033-3.076-.655-4.22-1.833-1.146-1.177-1.702-2.65-1.702-4.384 0-1.734.589-3.206 1.734-4.417 1.178-1.21 2.585-1.8 4.22-1.8 1.538 0 2.945.524 4.156 1.604 1.21 1.08 1.832 2.454 1.832 4.09H69.33c-.23-1.113-.916-1.669-2.094-1.669-.655 0-1.178.196-1.538.654-.36.459-.556.982-.556 1.538s.163 1.047.556 1.473c.36.425.883.654 1.505.72 1.669.097 3.075.686 4.253 1.766zm-61.248.066c1.178 1.08 1.767 2.486 1.767 4.187v3.796c0 1.701-.556 3.14-1.669 4.253-1.112 1.145-2.585 1.701-4.384 1.701-1.472 0-2.814-.588-3.959-1.7C.818 22.115.163 20.773 0 19.268V15.67h3.959v3.664c.294 1.015.949 1.538 1.996 1.538.752 0 1.308-.196 1.636-.654.327-.458.49-.982.49-1.57v-3.469c0-.654-.196-1.145-.556-1.472-.392-.327-.916-.49-1.603-.49-1.669-.034-3.076-.655-4.22-1.833C.555 10.206 0 8.734 0 7c0-1.734.589-3.207 1.8-4.417 1.145-1.21 2.552-1.8 4.187-1.8 1.538 0 2.945.524 4.156 1.603 1.21 1.08 1.832 2.454 1.832 4.09H8.08c-.229-1.112-.916-1.668-2.094-1.668-.654 0-1.177.196-1.537.654-.36.458-.557.981-.557 1.538 0 .556.164 1.047.557 1.472.36.425.883.654 1.505.72 1.668.098 3.075.687 4.253 1.767zM51.4 12.79v5.79c0 .623.196 1.146.622 1.571.392.426.883.622 1.472.622 1.145 0 1.832-.524 2.094-1.636v-3.533h3.926v3.762h-.033c-.13 1.538-.752 2.814-1.799 3.795-1.112 1.08-2.487 1.604-4.155 1.604-1.702 0-3.141-.557-4.254-1.702-1.145-1.145-1.7-2.584-1.7-4.319V6.672c0-1.734.555-3.173 1.668-4.318C50.353 1.209 51.793.652 53.527.652c1.603 0 3.01.59 4.22 1.767 1.211 1.178 1.833 2.585 1.833 4.188v6.184zm.066-5.89v2.225h4.286V6.902c0-.622-.23-1.146-.655-1.571a2.077 2.077 0 0 0-1.505-.622c-.621 0-1.112.197-1.538.622-.425.425-.621.949-.621 1.57zM23.95 2.518c1.21 1.178 1.8 2.552 1.8 4.188V24.57h-3.894V6.967c0-.589-.197-1.112-.622-1.538-.425-.425-.916-.621-1.472-.621-.59 0-1.08.196-1.473.621-.425.426-.621.949-.621 1.57v17.603h-3.894V6.803c0-1.636.59-3.075 1.8-4.253S18.19.783 19.762.783c1.603-.032 2.977.556 4.188 1.734zm3.795 22.052V7.032h3.893V24.57zM39.752.587c.786 0 1.571.164 2.258.458a6.12 6.12 0 0 1 1.93 1.309c.557.556 1.015 1.145 1.31 1.8.326.817.457 1.733.457 2.813V18.81c0 1.8-.523 3.304-1.603 4.515a5.858 5.858 0 0 1-1.44 1.112c-.85.426-1.865.59-3.01.524-.818-.066-1.505-.458-1.995-1.178V30h-3.894V6.64c0-1.636.589-3.076 1.8-4.254a6.182 6.182 0 0 1 1.832-1.276 5.645 5.645 0 0 1 2.355-.523zM37.66 18.81c0 .687.196 1.243.621 1.603.426.36.916.556 1.472.556.557 0 1.047-.196 1.473-.589.425-.392.621-.916.621-1.57V6.967c0-.654-.229-1.178-.654-1.57a2.051 2.051 0 0 0-1.44-.557c-.556 0-1.046.197-1.472.556-.425.393-.621.917-.621 1.571z"/></g><g><path fill="#1f2430" d="M28.563.685a.796.796 0 0 0-.785.785v2.225c0 .425.36.785.785.785h2.421c.425 0 .785-.36.785-.785V1.47a.796.796 0 0 0-.785-.785zm54.9 1.538a1.71 1.71 0 0 0-1.7-1.702h-5.366a1.71 1.71 0 0 0-1.702 1.702v5.366a1.71 1.71 0 0 0 1.702 1.7h5.366a1.71 1.71 0 0 0 1.7-1.7z"/></g></g></g></svg>