<svg xmlns="http://www.w3.org/2000/svg" width="368.266" height="62.68" viewBox="0 0 368.266 62.68">
  <g id="logo" transform="translate(-14.534 -10.22)">
    <g id="Gruppe_24596" data-name="Gruppe 24596">
      <path id="Pfad_131" data-name="Pfad 131" d="M94.8,25.2a4.082,4.082,0,0,1,2.7.6c.5.4.7,1.3.7,2.8V61.7c0,3.7-.7,6.4-2.1,7.9a7.832,7.832,0,0,1-6,2.3,12.528,12.528,0,0,1-2.4-.2l-.1.4a21.512,21.512,0,0,0,5.5.8,10.728,10.728,0,0,0,4.9-1,9.936,9.936,0,0,0,3.4-2.6,7.228,7.228,0,0,0,1.6-3.8,47.1,47.1,0,0,0,.4-6.5V28.4A3.845,3.845,0,0,1,104,26c.4-.5,1.3-.8,2.9-.8v-.4h-12l-.1.4Z" fill="#1f2430"/>
      <path id="Pfad_132" data-name="Pfad 132" d="M127.4,58.3a.31.31,0,0,0,.1.2.349.349,0,0,0,.1.2,3.625,3.625,0,0,1,.5,1.3c0,.4-.3.6-1,.6v.2h7v-.2a2.851,2.851,0,0,1-2.5-1.4,12.339,12.339,0,0,1-.8-1.5L120.2,35.5h-.5L108.9,58.4a4.082,4.082,0,0,1-1.3,1.8,3.339,3.339,0,0,1-1.5.3v.2h4.4v-.2c-.7,0-1-.2-1-.5a5.94,5.94,0,0,1,.5-1.2l4.5-9.1h8.7Zm-8.7-18.4,4,9.2h-8.1Z" fill="#1f2430"/>
      <path id="Pfad_133" data-name="Pfad 133" d="M154.1,56.4,143.6,35.8H138V36a4.973,4.973,0,0,1,1.6.3c.6.2,1.1.9,1.7,1.9l-3.4,20.4c-.1.4-.1.7-.2,1a1.024,1.024,0,0,1-.5.6,3.09,3.09,0,0,1-1.3.2v.2h4.6v-.2c-.9,0-1.4-.3-1.4-.9a2.483,2.483,0,0,1,.1-.9l3-18.7,10.7,20.8h.2L163.8,40l3.1,18.6a4.592,4.592,0,0,1,.1,1c0,.7-.4,1.1-1.3,1v.2h6.7v-.2a2.07,2.07,0,0,1-1.5-.5,5.167,5.167,0,0,1-.6-1.7l-3.1-19.2a5.384,5.384,0,0,1-.1-1.1c0-1.3.8-1.9,2.4-2v-.2h-4.7Z" fill="#1f2430"/>
      <path id="Pfad_134" data-name="Pfad 134" d="M176.6,36.6a4.386,4.386,0,0,1,.3,1.9V58.9c0,.8-.2,1.2-.5,1.4a3.233,3.233,0,0,1-1.6.3v.2h20.4V57.5h-.3a3.9,3.9,0,0,1-.7,1.8,2.281,2.281,0,0,1-1.2.6,22.939,22.939,0,0,1-3.2.1h-5.3a13.8,13.8,0,0,1-2.5-.2,1.442,1.442,0,0,1-1.2-.9,4.94,4.94,0,0,1-.4-2.4V49.1h9.4a4.141,4.141,0,0,1,1.4.2c.3.1.4.3.5.6h.3V47.6h-.3a.548.548,0,0,1-.4.6,4.95,4.95,0,0,1-1.7.2h-9.1V36.6h9.8a3.772,3.772,0,0,1,2,.3c.3.2.6.9,1,2.2h.3V35.8H174.9v.3C175.8,36.1,176.4,36.3,176.6,36.6Z" fill="#1f2430"/>
      <path id="Pfad_135" data-name="Pfad 135" d="M213.5,36.1a9.916,9.916,0,0,0-1.9-.4,19.066,19.066,0,0,0-3.2-.3,9.2,9.2,0,0,0-6.2,1.9,5.782,5.782,0,0,0-2.4,4.7,9.677,9.677,0,0,0,.9,4,6.039,6.039,0,0,0,2.3,2.2,22.321,22.321,0,0,0,4.8,1.7,26.6,26.6,0,0,1,4.7,1.6,6.011,6.011,0,0,1,1.9,1.5,3.139,3.139,0,0,1,.7,2.1,4.319,4.319,0,0,1-2,3.5c-1.3,1-3.2,1.4-5.8,1.4-2.8,0-4.9-.5-6.2-1.4s-2-2.5-2-4.8h-.3v7h8c.4,0,1.3-.1,2.6-.2a12.926,12.926,0,0,0,2.9-.5,8.107,8.107,0,0,0,1.8-1,10.606,10.606,0,0,0,1.5-1.5,5.559,5.559,0,0,0,.9-1.7,5.822,5.822,0,0,0,.3-1.9,4.777,4.777,0,0,0-1.6-3.8,8.42,8.42,0,0,0-3.3-2.1c-1.1-.4-3.2-1-6.3-1.9-1.8-.6-2.9-2.2-3.5-2.8a3.244,3.244,0,0,1-.8-2.3,4.182,4.182,0,0,1,1.8-3.4,7.82,7.82,0,0,1,4.8-1.4,11.419,11.419,0,0,1,3.3.5,6.811,6.811,0,0,1,2.6,1.5c.7.6,1.1,1,1.1,1h.2l-1.4-3c-.1-.2-.1-.2-.2-.2Z" fill="#1f2430"/>
      <path id="Pfad_136" data-name="Pfad 136" d="M261.8,57a.31.31,0,0,0,.1.2c.1.1.1.3.2.3a4.311,4.311,0,0,1,.7,2c0,.6-.5.9-1.4.9v.4h10.4v-.4a3.941,3.941,0,0,1-3.7-2.1,16.79,16.79,0,0,1-1.2-2.3L251,24.2h-.8L234,57.1a5.758,5.758,0,0,1-2,2.7,3.786,3.786,0,0,1-2.2.5v.4h6.7v-.4c-1,0-1.5-.3-1.5-.8a6.19,6.19,0,0,1,.7-1.8l6.8-13.6h13.1Zm-13-26,6,12.3H242.7Z" fill="#1f2430"/>
      <path id="Pfad_137" data-name="Pfad 137" d="M293.2,60.8V55h-.3c-.1,1.9-.5,3.2-1.4,3.9a5.886,5.886,0,0,1-3.9,1H284c-2.1,0-3.6-.3-4.4-.9a3.386,3.386,0,0,1-1.3-3.1V38.3a4.545,4.545,0,0,1,.1-1.4,1.024,1.024,0,0,1,.6-.5,3.221,3.221,0,0,1,1.6-.2V36h-8v.2c1.1,0,1.7.2,1.9.5a2.81,2.81,0,0,1,.3,1.5V58.8c0,.7-.1,1.2-.4,1.4a2.646,2.646,0,0,1-1.8.4v.2Z" fill="#1f2430"/>
      <path id="Pfad_138" data-name="Pfad 138" d="M315.7,60.8V55h-.3c-.1,1.9-.5,3.2-1.4,3.9a5.886,5.886,0,0,1-3.9,1h-3.6c-2.1,0-3.6-.3-4.4-.9a3.386,3.386,0,0,1-1.3-3.1V38.3a4.545,4.545,0,0,1,.1-1.4,1.024,1.024,0,0,1,.6-.5,3.221,3.221,0,0,1,1.6-.2V36h-8v.2c1.1,0,1.7.2,1.9.5a2.81,2.81,0,0,1,.3,1.5V58.8c0,.7-.1,1.2-.4,1.4a2.646,2.646,0,0,1-1.8.4v.2Z" fill="#1f2430"/>
      <path id="Pfad_139" data-name="Pfad 139" d="M319.5,36.7a4.385,4.385,0,0,1,.3,1.9V58.9c0,.8-.2,1.2-.5,1.4a3.506,3.506,0,0,1-1.6.3v.2H338V57.5h-.3a3.022,3.022,0,0,1-.8,1.8,2.281,2.281,0,0,1-1.2.6,22.939,22.939,0,0,1-3.2.1h-5.3a13.8,13.8,0,0,1-2.5-.2,1.442,1.442,0,0,1-1.2-.9,4.94,4.94,0,0,1-.4-2.4V49.1h9.4a4.141,4.141,0,0,1,1.4.2c.3.1.4.3.5.6h.3V47.6h-.3a.548.548,0,0,1-.4.6,4.95,4.95,0,0,1-1.7.2h-9.1V36.7H333a3.772,3.772,0,0,1,2,.3c.3.2.6.9,1,2.2h.3V35.9H317.6v.3C318.7,36.1,319.3,36.3,319.5,36.7Z" fill="#1f2430"/>
      <path id="Pfad_140" data-name="Pfad 140" d="M361.6,36.1a3.808,3.808,0,0,1,1.6.3c.4.2.6.8.6,1.7V56L344.4,35.9h-5.6v.2c1.8-.1,2.9.4,3.4,1.3a7.281,7.281,0,0,1,.7,3.5V58c0,1.1-.1,1.8-.4,2.1-.2.3-.9.4-1.9.4v.2h5.7v-.2a6.1,6.1,0,0,1-1.5-.3,1.024,1.024,0,0,1-.5-.6,3.918,3.918,0,0,1-.2-1.3V39.8L365,61.1V38.3a2.575,2.575,0,0,1,.5-1.8,2.646,2.646,0,0,1,1.8-.4v-.2h-5.8l.1.2Z" fill="#1f2430"/>
      <path id="Pfad_141" data-name="Pfad 141" d="M375.9,34.4a4.6,4.6,0,0,0,2.3,8.6,4.934,4.934,0,0,0,2.3-.6,4.6,4.6,0,0,0-2.3-8.6A4.383,4.383,0,0,0,375.9,34.4Zm4.1.7a3.159,3.159,0,0,1,1.4,1.4,4.486,4.486,0,0,1,.5,1.9,4.136,4.136,0,0,1-.5,1.9,3.159,3.159,0,0,1-1.4,1.4,3.86,3.86,0,0,1-3.8,0,3.159,3.159,0,0,1-1.4-1.4,3.86,3.86,0,0,1,0-3.8,3.159,3.159,0,0,1,1.4-1.4,4.136,4.136,0,0,1,1.9-.5A3.394,3.394,0,0,1,380,35.1ZM376.9,41V38.9h.5a.845.845,0,0,1,.6.2,3.4,3.4,0,0,1,.8,1.2l.4.8h1l-.6-1a5.337,5.337,0,0,0-.7-1,1.381,1.381,0,0,0-.4-.3,1.557,1.557,0,0,0,1.4-1.4,1.445,1.445,0,0,0-.2-.7,2.651,2.651,0,0,0-.6-.5,4.512,4.512,0,0,0-1.3-.1h-1.7v5l.8-.1Zm0-4.3h.9c.4,0,.7,0,.8.1s.3.1.3.3c.1.1.1.2.1.4a1.421,1.421,0,0,1-.2.6c-.1.2-.5.2-.9.2h-1V36.7Z" fill="#1f2430"/>
    </g>
    <g id="Gruppe_24597" data-name="Gruppe 24597">
      <path id="Pfad_142" data-name="Pfad 142" d="M67.1,70.2s-4.7-2.2-2.4-8c1.3-3.3,5.3-6.3,9.8-12.1C81.6,40.9,84.7,30,84.9,23.8S84,11.7,79.2,10.5c-4.8-1.3-9.9,2.2-13,4.9a52.894,52.894,0,0,0-7,7.5,61.844,61.844,0,0,0-3.9,5.4s-5.5-4.8-11.9-3.4C37,26.4,34.2,30,32.7,32.7A18.505,18.505,0,0,0,30.2,39c-.3,1.9-.4,4.7-.4,4.7s-8.2-2.3-12.8-.5c-3.5,1.4-3.1,3.7.1,7.4C20.8,55,31.2,61.1,37.3,64.3a89.112,89.112,0,0,0,18.4,7.5c4.5,1.1,6.9.7,8.9.2A2.817,2.817,0,0,0,67.1,70.2Z" fill="#1f2430"/>
    </g>
  </g>
</svg>
