<svg xmlns="http://www.w3.org/2000/svg" width="30.061" height="30" viewBox="0 0 30.061 30"><g transform="translate(-766 -2419)"><rect width="30" height="30" transform="translate(766 2419)" fill="rgba(238,238,255,0)"/><g transform="translate(766 2419)"><g transform="translate(0 0)"><path d="M28.788.5H1.279A1.283,1.283,0,0,0,0,1.779V29.221A1.283,1.283,0,0,0,1.279,30.5H28.721a1.374,1.374,0,0,0,1.341-1.212V1.779A1.281,1.281,0,0,0,28.788.5ZM27.509,28H2.491V2.991H27.509V28Z" transform="translate(0 -0.5)" fill="#f5cc2f"/><path d="M99.279,135.621a1.283,1.283,0,0,0,1.279-1.279V121.579a1.279,1.279,0,1,0-2.559,0v12.763A1.291,1.291,0,0,0,99.279,135.621Z" transform="translate(-92.001 -112.967)" fill="#f5cc2f"/><path d="M184.779,121.859h10.21a1.279,1.279,0,1,0,0-2.559h-10.21a1.279,1.279,0,0,0,0,2.559Z" transform="translate(-172.268 -112.028)" fill="#f5cc2f"/><path d="M184.779,227.159h10.21a1.279,1.279,0,1,0,0-2.559h-10.21a1.279,1.279,0,0,0,0,2.559Z" transform="translate(-172.268 -210.882)" fill="#f5cc2f"/><path d="M184.779,331.359h10.21a1.279,1.279,0,1,0,0-2.559h-10.21a1.279,1.279,0,0,0,0,2.559Z" transform="translate(-172.268 -308.704)" fill="#f5cc2f"/></g></g></g></svg>