<svg xmlns="http://www.w3.org/2000/svg" width="169" height="36" viewBox="0 0 169 36"><g><g><g><path fill="#fff" d="M66.294 16.532v9.425h-3.619v-9.136c0-2.569-1.176-4.007-3.365-4.007a3.89 3.89 0 0 0-4.007 4.206v8.937h-3.618v-9.136c0-2.569-1.203-4.007-3.392-4.007a3.908 3.908 0 0 0-4.007 4.206v8.937H40.55V9.847h3.266v1.89a5.644 5.644 0 0 1 4.812-2.197 5.834 5.834 0 0 1 5.21 2.84 6.513 6.513 0 0 1 5.708-2.84c4.17 0 6.748 2.623 6.748 6.992z"/></g><g><path fill="#fff" d="M77.736 22.818a4.92 4.92 0 1 1 0-9.841 4.92 4.92 0 0 1 0 9.841zm5.328-12.97V12a7.345 7.345 0 0 0-5.87-2.515c-4.722 0-7.988 3.456-7.988 8.413 0 4.957 3.266 8.412 7.987 8.412a7.39 7.39 0 0 0 5.87-2.506v2.153h3.212V9.847z"/></g><g><path fill="#fff" d="M102.864 17.898a4.93 4.93 0 1 1-9.85 0 4.93 4.93 0 1 1 9.85 0zm0-14.763v8.44a7.734 7.734 0 0 0-5.572-2.09c-4.568 0-7.923 3.32-7.923 8.413 0 5.092 3.4 8.412 7.923 8.412a7.435 7.435 0 0 0 5.934-2.506v2.153h3.257V3.135z"/></g><g><path fill="#fff" d="M118.224 22.339c-3.003 0-5.02-1.863-5.02-4.73 0-2.868 1.99-4.795 5.02-4.795 3.03 0 5.02 1.927 5.02 4.794 0 2.84-2.017 4.731-5.02 4.731zm4.558 1.465a6.413 6.413 0 0 0 4.134-6.214A6.983 6.983 0 0 0 125 12.67l2.243-2.615-2.641-2.017-2.054 2.506a8.62 8.62 0 0 0-4.36-1.077c-4.993 0-8.61 3.447-8.61 8.141 0 4.894 3.391 8.024 8.737 8.024 3.012 0 4.821 1.203 4.821 3.256s-1.954 3.42-4.884 3.42c-3.112 0-4.993-1.566-4.921-3.945h-3.618c-.2 4.342 3.193 7.237 8.512 7.237 5.183 0 8.575-2.605 8.575-6.676 0-2.406-1.439-4.215-4.016-5.12z"/></g><g><path fill="#fff" d="M130.182 9.847h3.618v16.11h-3.618zm-.489-4.631a2.352 2.352 0 1 1 2.316 2.216 2.216 2.216 0 0 1-2.316-2.216z"/></g><g><path fill="#fff" d="M136.93 17.898c0-4.984 3.455-8.413 8.575-8.413a8.494 8.494 0 0 1 6.096 2.479l-2.216 2.388a5.427 5.427 0 0 0-3.817-1.538 4.821 4.821 0 0 0-4.984 5.084 4.785 4.785 0 0 0 4.984 5.092 5.31 5.31 0 0 0 3.98-1.691l2.252 2.442a8.548 8.548 0 0 1-6.26 2.542c-5.218.027-8.61-3.293-8.61-8.385z"/></g><g><path fill="#fff" d="M168.815 25.957h-4.342l-2.09-3.13-1.727-2.713-1.764 2.713-2.18 3.13h-4.242l5.78-8.276-5.427-7.798h4.332l2.28 3.356 1.212 1.963 1.24-1.963 2.279-3.356h4.269l-5.427 7.798z"/></g><g><path fill="#fff" d="M26.231 25.957v.1l-.208-.145-2.56-2.044-.226-.19a.362.362 0 0 1-.117-.308v-7.309l-6.812 5.482-.75-.597-5.762-4.604-.263-.2c-.108-.08-.163-.063-.172.073-.004.076-.004.151 0 .226v6.875a.543.543 0 0 1-.217.461l-2.713 2.18-.082.063v-.65a1.574 1.574 0 0 1 0-.29.724.724 0 0 1 .299-.489l.542-.416 1.023-.841a.38.38 0 0 0 .126-.253v-9.019a.1.1 0 0 1 .073 0l.497.39 5.843 4.694c.462.37.905.724 1.393 1.085l.064.055 7.896-6.332v8.9a.633.633 0 0 0 .28.561c.516.398 1.014.814 1.53 1.222.142.109.22.282.208.46.081.308.09.589.09.86zm-9.95-6.693l-.696-.561-8.078-6.504h-.09a.444.444 0 0 0 0 .1 2.206 2.206 0 0 0 0 .244v10.013a.697.697 0 0 1-.299.606c-.208.154-.407.317-.597.48l-.1.072V10.146l1.285 1.03 8.376 6.749c.181.145.226.145.416 0l9.398-7.571.335-.263v13.722l-.904-.741a.362.362 0 0 1-.136-.308v-10.61zM6.331 7.803l.299.235 7.598 6.124c.615.506 1.23.986 1.809 1.483.127.1.172.1.298 0l3.926-3.166 5.708-4.586.145-.108v.977a.434.434 0 0 1-.172.37l-9.47 7.698h-.055a.172.172 0 0 1-.244 0l-.724-.588-5.563-4.468L6.539 9.06a.38.38 0 0 1-.154-.325zm9.95-7.137C7.29.666 0 7.956 0 16.948S7.29 33.23 16.281 33.23s16.282-7.29 16.282-16.282S25.273.666 16.281.666z"/></g></g></g></svg>