<svg xmlns="http://www.w3.org/2000/svg" width="164.756" height="29.305" viewBox="0 0 164.756 29.305">
  <g id="rip-curl-seeklogo.com" transform="translate(0 0.002)">
    <path id="Pfad_50213" data-name="Pfad 50213" d="M230.441,327.513c-.137.741-2.114,1.73-4.009,1.73h-1.153l1.153-2.911c1.73-.275,3.3-.3,3.872.467a.717.717,0,0,1,.137.714m5.108-1.428c-.6-1.126-3.323-1.785-5.437-1.785h-8.293L217.7,334.927H223l2.059-5.135,4.092,5.135h5.767a47.342,47.342,0,0,1-3.817-4.311c1.043-.384,4.091-1.62,4.558-2.8a2.021,2.021,0,0,0-.11-1.73m75.24,1.4c-.137.741-2.169,1.73-4.146,1.73h-1.181l1.263-3.076c1.455,0,3.323-.137,3.927.632a.763.763,0,0,1,.137.714m4.119-1.4c-.6-1.126-2.279-1.785-4.449-1.785h-8.54l-4.256,10.627h5.492l2.087-5.08,4.586,5.08h5.19s-2.664-2.362-4.7-4.311c1.071-.384,4.2-1.62,4.668-2.8a2.09,2.09,0,0,0,.137-.961,1.554,1.554,0,0,0-.22-.769M240.245,324.3,235.8,334.927h5.629l4.366-10.627Zm16.888,3.185c-.165.8-2,1.73-4.064,1.73h-1.236c.055-.165.741-1.867,1.263-3.1,1.757-.192,3.35-.137,3.927.659a.879.879,0,0,1,.11.714m4.037-1.4c-.6-1.126-2.224-1.785-4.366-1.785h-8.375l-4.5,10.627h5.712l1.538-3.954h3.378c3.076,0,6.014-1.373,6.728-3.158a2.09,2.09,0,0,0,.137-.961,1.947,1.947,0,0,0-.247-.769m15.4-1.785c-5.053,0-11.313,2.444-12.412,5.162a2.875,2.875,0,0,0,.137,2.554c.961,1.7,4.229,2.911,7.908,2.911a22.474,22.474,0,0,0,7.249-1.675l.33-2.224a14.972,14.972,0,0,1-6.92,2.059c-1.565,0-2.691-.439-3.13-1.236a2.32,2.32,0,0,1,.027-2,7.186,7.186,0,0,1,6.508-3.872,9.046,9.046,0,0,1,4.064.851c.247.137.769.494.769.494l.934-2.032s-1.483-.989-5.465-.989" transform="translate(-163.934 -308.759)" fill="#1f2430"/>
    <path id="Pfad_50214" data-name="Pfad 50214" d="M580.124,325.23l-4.009,9.968a.467.467,0,0,0-.027.192h0c0,.137.11.384.3.384H587.95l.714-1.757h-6.48l3.652-8.787Z" transform="translate(-423.908 -309.434)" fill="#1f2430"/>
    <path id="Pfad_50215" data-name="Pfad 50215" d="M457.019,324.3l-2.5,5.986a3.315,3.315,0,0,0-.247,1.538,2.713,2.713,0,0,0,.3,1.016c.686,1.263,3.185,2.087,5.876,2.087,4.146,0,7.881-1.95,8.787-4.229l2.526-6.4h-2.471l-2.362,6.014c-.494,1.208-2.828,2.252-5.108,2.252-1.565,0-2.032-.467-2.2-.741a1.753,1.753,0,0,1,.055-1.126s2.554-6.4,2.5-6.4Z" transform="translate(-335.537 -308.759)" fill="#1f2430"/>
    <path id="Pfad_50216" data-name="Pfad 50216" d="M75.117,295.982a46.573,46.573,0,0,1-17.135-3.57c-5.849-2.5-9.062-5.684-9.062-8.979,0-3.625,5.986-3.432,8.595-2.911,5.19,1.043,9.693,5.327,10.929,6.618l.824.824-.055-.494a18.467,18.467,0,0,0-5.162-10.847c-3.68-3.844-9.172-6.481-16.311-7.881a60.612,60.612,0,0,0-23.588.247c-.439.082-1.785.439-2.087.549-.22.082-.22.137,0,.137s.741-.082.769-.082a62.036,62.036,0,0,1,21.529,1.153,36.315,36.315,0,0,1,13.483,6.1,32.8,32.8,0,0,0-7.908-1.043c-5.272,0-10.929,1.62-10.929,6.206,0,3.048,2.169,5.767,7,8.842,6.371,4.064,14.059,5.492,19.387,5.959a47.892,47.892,0,0,0,14.142-.769c.357-.082.247-.192-.11-.165-.577.027-2.554.11-4.311.11Z" transform="translate(-21.9 -267.7)" fill="#1f2430"/>
  </g>
</svg>
