<svg xmlns="http://www.w3.org/2000/svg" width="37.077" height="37" viewBox="0 0 37.077 37"><g transform="translate(-1252.999 -2345)"><rect width="37.015" height="37" transform="translate(1252.999 2345)" fill="#f5cc2f" opacity="0"/><g transform="translate(1253 2345)"><g transform="translate(0 0)"><g transform="translate(0 0)"><path d="M34,.5H3.078A3.08,3.08,0,0,0,0,3.578V25.035a3.08,3.08,0,0,0,3.078,3.078H16.961v6.232H11.676a1.577,1.577,0,1,0,0,3.154H25.4a1.577,1.577,0,0,0,0-3.154H20.115V28.114H34a3.033,3.033,0,0,0,3.078-3.078V3.578A3.08,3.08,0,0,0,34,.5Zm0,24.535H3.078V3.578H34Z" transform="translate(0 -0.5)" fill="#f5cc2f"/></g></g></g></g></svg>