<svg xmlns="http://www.w3.org/2000/svg" width="37.001" height="37" viewBox="0 0 37.001 37"><g transform="translate(-998.999 -2233.807)"><rect width="37" height="37" transform="translate(999 2233.807)" fill="#5e6cc4" opacity="0"/><g transform="translate(998.999 2234)"><path d="M30.76,23.941a6.184,6.184,0,0,0-.645.03L24.366,13.425a7.795,7.795,0,1,0-10.561.187L8.048,24.046a6.394,6.394,0,1,0,5.239,6.289,6.371,6.371,0,0,0-2.414-4.985l5.607-10.164a7.782,7.782,0,0,0,5.269-.1l5.472,9.932a6.381,6.381,0,1,0,3.538-1.079ZM6.894,33.685a3.351,3.351,0,1,1,3.351-3.351A3.326,3.326,0,0,1,6.894,33.685ZM14.307,7.8a4.677,4.677,0,1,1,4.677,4.677A4.693,4.693,0,0,1,14.307,7.8ZM30.76,33.685a3.351,3.351,0,1,1,3.351-3.351A3.326,3.326,0,0,1,30.76,33.685Z" transform="translate(-0.5 0)" fill="#5c6ac4"/></g></g></svg>