<svg xmlns="http://www.w3.org/2000/svg" width="28.087" height="30" viewBox="0 0 28.087 30"><path d="M41.323,5.662H36.009V4.024A4.029,4.029,0,0,0,31.985,0h-6.75a4.029,4.029,0,0,0-4.024,4.024V5.662H15.963A1.37,1.37,0,0,0,14.6,7.025V28.637A1.37,1.37,0,0,0,15.963,30h25.36a1.353,1.353,0,0,0,1.363-1.3V7.025A1.366,1.366,0,0,0,41.323,5.662ZM23.938,4.024A1.37,1.37,0,0,1,25.3,2.661h6.75a1.37,1.37,0,0,1,1.363,1.363V5.662H23.938ZM39.96,8.316v5.8l-9.954,2.693a1.363,1.363,0,0,0-2.726,0l-9.954-2.693v-5.8ZM17.326,27.339V16.887l9.954,2.674v.682a1.363,1.363,0,1,0,2.726,0v-.682l9.954-2.674V27.339Z" transform="translate(-14.6)" fill="#5c6ac4"/></svg>